<?xml version="1.0" encoding="UTF-8"?>
<!DOCTYPE svg PUBLIC "-//W3C//DTD SVG 1.1//EN" "http://www.w3.org/Graphics/SVG/1.1/DTD/svg11.dtd">
<svg xmlns="http://www.w3.org/2000/svg" version="1.1" width="50px" height="50px" style="shape-rendering:geometricPrecision; text-rendering:geometricPrecision; image-rendering:optimizeQuality; fill-rule:evenodd; clip-rule:evenodd" xmlns:xlink="http://www.w3.org/1999/xlink">
<g><path style="opacity:0.633" fill="#0d0d0d" d="M 18.5,-0.5 C 22.5,-0.5 26.5,-0.5 30.5,-0.5C 44.0066,5.14187 48.8399,15.1419 45,29.5C 42.9249,33.579 40.0916,37.079 36.5,40C 38.1247,40.8525 38.4581,41.8525 37.5,43C 40.5341,44.1912 42.2007,46.3579 42.5,49.5C 30.5,49.5 18.5,49.5 6.5,49.5C 7.01617,46.3467 8.34951,43.68 10.5,41.5C 11.2891,41.2172 11.9558,40.7172 12.5,40C 11.5291,38.5187 10.1958,37.6854 8.5,37.5C 3.62267,31.0288 1.456,23.6955 2,15.5C 1.32924,14.7476 0.495904,14.4142 -0.5,14.5C -0.5,13.5 -0.5,12.5 -0.5,11.5C 1.94333,10.8913 3.61,9.39126 4.5,7C 5.44915,6.38277 6.28248,6.54943 7,7.5C 10.4821,4.16083 14.3155,1.49416 18.5,-0.5 Z"/></g>
<g><path style="opacity:0.999" fill="#7e7e7e" d="M 17.5,1.5 C 30.1939,-0.944063 39.0272,3.7226 44,15.5C 44.9981,36.4543 35.1647,44.2876 14.5,39C 2.79822,30.9283 1.79822,22.095 11.5,12.5C 10.2634,11.7193 9.26341,10.7193 8.5,9.5C 10.9257,6.06774 13.9257,3.40107 17.5,1.5 Z"/></g>
<g><path style="opacity:0.933" fill="#1c1c1c" d="M 23.5,4.5 C 34.0086,3.63014 40.342,8.63014 42.5,19.5C 42.1667,20.1667 41.8333,20.8333 41.5,21.5C 39.9988,10.9972 33.9988,5.33055 23.5,4.5 Z"/></g>
<g><path style="opacity:0.982" fill="#131313" d="M 14.5,9.5 C 16.8519,10.5426 17.0185,11.8759 15,13.5C 13.2317,12.3181 13.0651,10.9848 14.5,9.5 Z"/></g>
<g><path style="opacity:1" fill="#bbbbbb" d="M 4.5,9.5 C 6.54408,10.0312 8.21075,11.1978 9.5,13C 7.69692,13.6368 6.36359,14.8035 5.5,16.5C 2.24191,14.395 1.90857,12.0617 4.5,9.5 Z"/></g>
<g><path style="opacity:0.959" fill="#161616" d="M 12.5,19.5 C 12.4148,18.0047 13.0815,17.0047 14.5,16.5C 15.8333,18.1667 17.1667,19.8333 18.5,21.5C 16.8333,22.5 15.5,23.8333 14.5,25.5C 12.6841,24.1851 11.0175,22.6851 9.5,21C 10.2438,19.9614 11.2438,19.4614 12.5,19.5 Z"/></g>
<g><path style="opacity:0.992" fill="#b6b6b6" d="M 12.5,19.5 C 16.4488,19.3089 16.9488,20.6422 14,23.5C 11.988,22.4335 11.488,21.1002 12.5,19.5 Z"/></g>
<g><path style="opacity:0.545" fill="#090909" d="M 49.5,38.5 C 49.5,39.5 49.5,40.5 49.5,41.5C 47.3763,42.0312 45.8763,43.3645 45,45.5C 43.1449,43.6449 41.3116,41.8116 39.5,40C 41.3284,38.3371 42.9951,36.5038 44.5,34.5C 45.8726,36.2065 47.5393,37.5398 49.5,38.5 Z"/></g>
<g><path style="opacity:0.461" fill="#000000" d="M 8.5,37.5 C 9.60048,38.6049 10.2671,39.9382 10.5,41.5C 6.98604,43.3318 5.48604,42.3318 6,38.5C 6.67076,37.7476 7.5041,37.4142 8.5,37.5 Z"/></g>
<g><path style="opacity:1" fill="#b3b3b3" d="M 44.5,37.5 C 48.0952,38.9051 48.2619,40.5717 45,42.5C 44.1667,41.6667 43.3333,40.8333 42.5,40C 43.3805,39.2917 44.0472,38.4584 44.5,37.5 Z"/></g>
<g><path style="opacity:0.996" fill="#7e7e7e" d="M 13.5,40.5 C 20.8409,40.3337 28.1742,40.5003 35.5,41C 35.9574,41.414 36.2907,41.914 36.5,42.5C 28.5,43.8333 20.5,43.8333 12.5,42.5C 12.8627,41.8165 13.1961,41.1499 13.5,40.5 Z"/></g>
<g><path style="opacity:0.988" fill="#878787" d="M 39.5,46.5 C 29.5,47.8333 19.5,47.8333 9.5,46.5C 19.5,45.1667 29.5,45.1667 39.5,46.5 Z"/></g>
<g><path style="opacity:0.96" fill="#3a3a3a" d="M 9.5,46.5 C 19.5,47.8333 29.5,47.8333 39.5,46.5C 40.0431,46.56 40.3764,46.8933 40.5,47.5C 29.8333,48.8333 19.1667,48.8333 8.5,47.5C 8.62358,46.8933 8.95691,46.56 9.5,46.5 Z"/></g>
</svg>
