<?xml version="1.0" encoding="UTF-8"?>
<!DOCTYPE svg PUBLIC "-//W3C//DTD SVG 1.1//EN" "http://www.w3.org/Graphics/SVG/1.1/DTD/svg11.dtd">
<svg xmlns="http://www.w3.org/2000/svg" version="1.1" width="50px" height="50px" style="shape-rendering:geometricPrecision; text-rendering:geometricPrecision; image-rendering:optimizeQuality; fill-rule:evenodd; clip-rule:evenodd" xmlns:xlink="http://www.w3.org/1999/xlink">
<g><path style="opacity:0.428" fill="#0d0d0d" d="M 22.5,-0.5 C 24.1667,-0.5 25.8333,-0.5 27.5,-0.5C 33.3034,0.970949 39.3034,2.13762 45.5,3C 47.3502,3.68972 48.6836,4.85639 49.5,6.5C 49.5,7.16667 49.5,7.83333 49.5,8.5C 47.7053,15.637 46.2053,22.9703 45,30.5C 40.8697,31.4861 36.703,31.6527 32.5,31C 35.6604,34.2268 35.9937,37.5602 33.5,41C 26.7735,43.9557 20.1069,46.789 13.5,49.5C 12.1667,49.5 10.8333,49.5 9.5,49.5C 5.87257,41.9167 2.53924,34.25 -0.5,26.5C -0.5,25.8333 -0.5,25.1667 -0.5,24.5C 5.32921,21.0427 11.4959,18.0427 18,15.5C 18.6667,11.5 19.3333,7.5 20,3.5C 20.4796,1.86698 21.3129,0.533646 22.5,-0.5 Z"/></g>
<g><path style="opacity:0.999" fill="#7d7d7d" d="M 27.5,19.5 C 27.7035,17.6096 27.0368,16.1096 25.5,15C 23.3435,14.9219 21.3435,14.7552 19.5,14.5C 20.3419,10.2723 21.3419,6.10562 22.5,2C 30.8322,2.02765 38.9988,3.19431 47,5.5C 46.3368,13.1574 45.3368,20.8241 44,28.5C 43.5,29 43,29.5 42.5,30C 39.134,30.3301 35.8006,29.9967 32.5,29C 30.7232,25.7907 29.0565,22.624 27.5,19.5 Z"/></g>
<g><path style="opacity:0.965" fill="#2b2b2b" d="M 39.5,6.5 C 43.6772,5.84156 45.1772,7.50822 44,11.5C 41.1306,14.0087 38.964,13.342 37.5,9.5C 38.1925,8.48224 38.8592,7.48224 39.5,6.5 Z"/></g>
<g><path style="opacity:0.976" fill="#c8c8c8" d="M 40.5,7.5 C 41.9953,7.41483 42.9953,8.08149 43.5,9.5C 42.6798,11.1112 41.3464,11.7778 39.5,11.5C 39.4326,10.0413 39.7659,8.70792 40.5,7.5 Z"/></g>
<g><path style="opacity:0.937" fill="#313131" d="M 31.5,16.5 C 32.209,17.404 33.209,17.7373 34.5,17.5C 34.7709,15.6203 34.1042,14.287 32.5,13.5C 31.9826,12.4632 32.6493,12.2966 34.5,13C 37.3264,15.8641 36.8264,18.0308 33,19.5C 30.2765,18.7916 29.2765,17.1249 30,14.5C 30.2784,15.4158 30.7784,16.0825 31.5,16.5 Z"/></g>
<g><path style="opacity:0.986" fill="#cfcfcf" d="M 32.5,13.5 C 34.1042,14.287 34.7709,15.6203 34.5,17.5C 33.209,17.7373 32.209,17.404 31.5,16.5C 31.5569,15.391 31.8902,14.391 32.5,13.5 Z"/></g>
<g><path style="opacity:0.998" fill="#7d7d7d" d="M 27.5,19.5 C 29.0259,24.9103 30.8593,30.2436 33,35.5C 33.6667,36.8333 33.6667,38.1667 33,39.5C 26.8502,41.9955 20.6836,44.4955 14.5,47C 12.7412,47.7975 11.0745,47.6309 9.5,46.5C 6.4667,39.2311 3.9667,31.8978 2,24.5C 8.91249,21.0252 16.0792,18.0252 23.5,15.5C 25.2156,16.5487 26.5489,17.882 27.5,19.5 Z"/></g>
<g><path style="opacity:0.984" fill="#bdbdbd" d="M 23.5,24.5 C 22.0413,24.5674 20.7079,24.2341 19.5,23.5C 19.6941,21.0882 21.0274,20.0882 23.5,20.5C 23.5,21.8333 23.5,23.1667 23.5,24.5 Z"/></g>
<g><path style="opacity:0.937" fill="#313131" d="M 23.5,24.5 C 23.5,23.1667 23.5,21.8333 23.5,20.5C 21.0274,20.0882 19.6941,21.0882 19.5,23.5C 18.0823,21.0124 18.9156,19.3458 22,18.5C 23.8475,19.1693 25.0142,20.5026 25.5,22.5C 25.1445,23.5223 24.4778,24.189 23.5,24.5 Z"/></g>
<g><path style="opacity:0.922" fill="#1b1b1b" d="M 19.5,23.5 C 20.7079,24.2341 22.0413,24.5674 23.5,24.5C 23.0831,25.1239 22.4164,25.4573 21.5,25.5C 20.2867,25.2528 19.62,24.5862 19.5,23.5 Z"/></g>
<g><path style="opacity:0.929" fill="#232323" d="M 6.5,25.5 C 10.4938,23.6512 11.9938,24.9845 11,29.5C 8.13476,31.087 5.96809,30.4203 4.5,27.5C 4.85549,26.4777 5.52216,25.811 6.5,25.5 Z"/></g>
<g><path style="opacity:0.984" fill="#c1c1c1" d="M 6.5,25.5 C 8.34642,25.2222 9.67975,25.8888 10.5,27.5C 9.67975,29.1112 8.34642,29.7778 6.5,29.5C 6.5,28.1667 6.5,26.8333 6.5,25.5 Z"/></g>
<g><path style="opacity:0.961" fill="#2b2b2b" d="M 15.5,33.5 C 13.6512,29.5062 14.9845,28.0062 19.5,29C 22.0087,31.8694 21.342,34.036 17.5,35.5C 16.4777,35.1445 15.811,34.4778 15.5,33.5 Z"/></g>
<g><path style="opacity:0.988" fill="#c0c0c0" d="M 15.5,33.5 C 15.2222,31.6536 15.8888,30.3202 17.5,29.5C 19.1112,30.3202 19.7778,31.6536 19.5,33.5C 18.1667,33.5 16.8333,33.5 15.5,33.5 Z"/></g>
<g><path style="opacity:0.933" fill="#303030" d="M 25.5,32.5 C 30.478,32.9523 31.478,35.1189 28.5,39C 23.3823,38.8242 22.3823,36.6576 25.5,32.5 Z"/></g>
<g><path style="opacity:1" fill="#d2d2d2" d="M 25.5,34.5 C 30.8333,35.5 30.8333,36.5 25.5,37.5C 25.5,36.5 25.5,35.5 25.5,34.5 Z"/></g>
<g><path style="opacity:0.925" fill="#1c1c1c" d="M 11.5,39.5 C 11.2222,41.3464 11.8888,42.6798 13.5,43.5C 15.1112,42.6798 15.7778,41.3464 15.5,39.5C 17.1769,43.9857 15.6769,45.319 11,43.5C 10.235,41.9343 10.4017,40.6009 11.5,39.5 Z"/></g>
<g><path style="opacity:1" fill="#c1c1c1" d="M 11.5,39.5 C 12.8333,39.5 14.1667,39.5 15.5,39.5C 15.7778,41.3464 15.1112,42.6798 13.5,43.5C 11.8888,42.6798 11.2222,41.3464 11.5,39.5 Z"/></g>
</svg>
