<?xml version="1.0" encoding="UTF-8"?>
<!DOCTYPE svg PUBLIC "-//W3C//DTD SVG 1.1//EN" "http://www.w3.org/Graphics/SVG/1.1/DTD/svg11.dtd">
<svg xmlns="http://www.w3.org/2000/svg" version="1.1" width="50px" height="50px" style="shape-rendering:geometricPrecision; text-rendering:geometricPrecision; image-rendering:optimizeQuality; fill-rule:evenodd; clip-rule:evenodd" xmlns:xlink="http://www.w3.org/1999/xlink">
<g><path style="opacity:0.686" fill="#0f0f0f" d="M 20.5,-0.5 C 23.8333,-0.5 27.1667,-0.5 30.5,-0.5C 30.3505,0.551975 30.5172,1.55198 31,2.5C 42.8151,8.27258 46.1484,17.2726 41,29.5C 37.9582,32.7106 34.7915,35.7106 31.5,38.5C 32.0463,40.1347 32.3796,41.8014 32.5,43.5C 37.2602,43.2007 38.5936,45.2007 36.5,49.5C 29.1667,49.5 21.8333,49.5 14.5,49.5C 12.4064,45.2007 13.7398,43.2007 18.5,43.5C 18.6741,41.139 19.0074,38.8056 19.5,36.5C 13.6164,35.1194 9.78311,31.4527 8,25.5C 5.96554,14.5655 9.96554,6.89881 20,2.5C 20.4828,1.55198 20.6495,0.551975 20.5,-0.5 Z"/></g>
<g><path style="opacity:0.511" fill="#000000" d="M 41.5,-0.5 C 42.1667,-0.5 42.8333,-0.5 43.5,-0.5C 46.0835,1.41911 45.7502,3.08578 42.5,4.5C 39.0749,3.24903 38.7416,1.58236 41.5,-0.5 Z"/></g>
<g><path style="opacity:1" fill="#b6b6b6" d="M 22.5,0.5 C 24.5,0.5 26.5,0.5 28.5,0.5C 26.5,11.1667 24.5,11.1667 22.5,0.5 Z"/></g>
<g><path style="opacity:0.326" fill="#000000" d="M 3.5,31.5 C 4.67504,31.281 5.67504,31.6143 6.5,32.5C 4.94835,33.7979 3.94835,33.4646 3.5,31.5 Z"/></g>
<g><path style="opacity:0.984" fill="#767676" d="M 19.5,4.5 C 20.3764,4.36912 21.0431,4.70245 21.5,5.5C 12.6861,9.4617 9.51948,16.1284 12,25.5C 19.8216,36.7113 28.4883,37.378 38,27.5C 41.7445,17.5601 38.9111,10.2268 29.5,5.5C 29.8333,5.16667 30.1667,4.83333 30.5,4.5C 42.4404,11.0906 44.607,20.0906 37,31.5C 29.6246,36.6278 22.1246,36.7945 14.5,32C 6.62527,20.9981 8.29194,11.8314 19.5,4.5 Z"/></g>
<g><path style="opacity:1" fill="#c1c1c1" d="M 23.5,22.5 C 24.8638,28.8574 26.0304,28.8574 27,22.5C 29.3504,24.6829 31.517,27.0163 33.5,29.5C 31.7962,31.8493 29.4629,32.8493 26.5,32.5C 25.8333,28.5 25.1667,28.5 24.5,32.5C 21.5371,32.8493 19.2038,31.8493 17.5,29.5C 19.5227,27.1472 21.5227,24.8138 23.5,22.5 Z"/></g>
<g><path style="opacity:1" fill="#bbbbbb" d="M 12.5,20.5 C 16.1817,20.3347 19.8484,20.5014 23.5,21C 21,23.5 18.5,26 16,28.5C 14.0073,26.1825 12.8406,23.5158 12.5,20.5 Z"/></g>
<g><path style="opacity:1" fill="#b8b8b8" d="M 27.5,21.5 C 30.9619,20.5184 34.6286,20.185 38.5,20.5C 38.1594,23.5158 36.9927,26.1825 35,28.5C 32.6303,25.9614 30.1303,23.6281 27.5,21.5 Z"/></g>
<g><path style="opacity:1" fill="#b8b8b8" d="M 34.5,11.5 C 36.873,13.5792 38.2064,16.2459 38.5,19.5C 34.8183,19.6653 31.1516,19.4986 27.5,19C 30.0386,16.6303 32.3719,14.1303 34.5,11.5 Z"/></g>
<g><path style="opacity:1" fill="#b7b7b7" d="M 15.5,11.5 C 18.2971,13.795 20.9638,16.295 23.5,19C 19.8484,19.4986 16.1817,19.6653 12.5,19.5C 12.9402,16.6202 13.9402,13.9535 15.5,11.5 Z"/></g>
<g><path style="opacity:1" fill="#bfbfbf" d="M 28.5,7.5 C 30.5329,7.94879 32.1996,8.94879 33.5,10.5C 26.378,20.2121 24.7113,19.2121 28.5,7.5 Z"/></g>
<g><path style="opacity:1" fill="#c2c2c2" d="M 20.5,7.5 C 22.4109,7.5743 23.5776,8.5743 24,10.5C 24.6667,12.8333 24.6667,15.1667 24,17.5C 21.6496,15.3171 19.483,12.9837 17.5,10.5C 18.3398,9.26501 19.3398,8.26501 20.5,7.5 Z"/></g>
<g><path style="opacity:0.477" fill="#000000" d="M 9.5,34.5 C 14.1453,35.2801 14.6453,37.2801 11,40.5C 8.52133,38.9116 8.02133,36.9116 9.5,34.5 Z"/></g>
<g><path style="opacity:1" fill="#7f7f7f" d="M 21.5,37.5 C 22.5,37.5 23.5,37.5 24.5,37.5C 25.1667,41.5 25.8333,41.5 26.5,37.5C 27.5,37.5 28.5,37.5 29.5,37.5C 29.8333,39.5 30.1667,41.5 30.5,43.5C 27.1667,43.5 23.8333,43.5 20.5,43.5C 20.8333,41.5 21.1667,39.5 21.5,37.5 Z"/></g>
<g><path style="opacity:1" fill="#868686" d="M 15.5,45.5 C 22.1998,45.17 28.8665,45.5033 35.5,46.5C 32.1667,46.8333 28.8333,47.1667 25.5,47.5C 21.7614,47.4864 18.428,46.8197 15.5,45.5 Z"/></g>
</svg>
