<?xml version="1.0" encoding="UTF-8"?>
<!DOCTYPE svg PUBLIC "-//W3C//DTD SVG 1.1//EN" "http://www.w3.org/Graphics/SVG/1.1/DTD/svg11.dtd">
<svg xmlns="http://www.w3.org/2000/svg" version="1.1" width="50px" height="50px" style="shape-rendering:geometricPrecision; text-rendering:geometricPrecision; image-rendering:optimizeQuality; fill-rule:evenodd; clip-rule:evenodd" xmlns:xlink="http://www.w3.org/1999/xlink">
<g><path style="opacity:0.587" fill="#050505" d="M 22.5,-0.5 C 23.8333,-0.5 25.1667,-0.5 26.5,-0.5C 32.4788,3.52578 32.9788,8.19245 28,13.5C 27.1841,16.9825 26.8507,20.3158 27,23.5C 24.4864,26.1772 22.6531,25.6772 21.5,22C 21.5608,18.3236 21.7275,14.4902 22,10.5C 23.1096,8.96317 24.6096,8.2965 26.5,8.5C 26.7778,6.65358 26.1112,5.32025 24.5,4.5C 22.8888,5.32025 22.2222,6.65358 22.5,8.5C 20.8333,8.5 19.1667,8.5 17.5,8.5C 17.0607,4.28482 18.7274,1.28482 22.5,-0.5 Z"/></g>
<g><path style="opacity:0.941" fill="#555555" d="M 27.5,3.5 C 25.5,2.16667 23.5,2.16667 21.5,3.5C 23.5,0.833333 25.5,0.833333 27.5,3.5 Z"/></g>
<g><path style="opacity:0.957" fill="#4d4d4d" d="M 21.5,3.5 C 21.5386,4.75618 21.0386,5.75618 20,6.5C 19.4153,5.00238 19.9153,4.00238 21.5,3.5 Z"/></g>
<g><path style="opacity:0.592" fill="#050505" d="M 7.5,12.5 C 6.83333,12.5 6.5,12.8333 6.5,13.5C 5.54163,13.9528 4.7083,14.6195 4,15.5C -0.727609,12.384 -0.560943,9.71734 4.5,7.5C 5.95244,8.93972 6.95244,10.6064 7.5,12.5 Z"/></g>
<g><path style="opacity:0.566" fill="#030303" d="M 44.5,8.5 C 46.0744,8.93709 47.2411,9.93709 48,11.5C 48.6877,12.3317 48.521,12.9984 47.5,13.5C 44.7802,15.1107 41.7802,15.944 38.5,16C 36.5,16.6667 35.1667,18 34.5,20C 33.365,20.7494 32.365,20.5827 31.5,19.5C 35.3586,15.0997 39.692,11.433 44.5,8.5 Z"/></g>
<g><path style="opacity:0.999" fill="#4f4f4f" d="M 27.5,3.5 C 30.3184,6.4378 29.985,9.10447 26.5,11.5C 24.7124,19.4247 23.879,19.4247 24,11.5C 28.1934,10.0735 29.3601,7.40683 27.5,3.5 Z"/></g>
<g><path style="opacity:0.526" fill="#000000" d="M 7.5,12.5 C 12.2787,13.2712 15.6121,15.9378 17.5,20.5C 17,20.8333 16.5,21.1667 16,21.5C 13.177,18.156 10.0103,15.4893 6.5,13.5C 7.16667,13.5 7.5,13.1667 7.5,12.5 Z"/></g>
<g><path style="opacity:0.667" fill="#0a0a0a" d="M 25.5,49.5 C 24.8333,49.5 24.1667,49.5 23.5,49.5C 18.6713,47.6682 13.6713,46.0015 8.5,44.5C 7.50776,40.2172 7.17443,35.8839 7.5,31.5C 6.16667,31.5 4.83333,31.5 3.5,31.5C 5.86136,25.826 10.1947,22.826 16.5,22.5C 19.7423,22.7833 20.0756,23.6166 17.5,25C 22.1667,27 26.8333,27 31.5,25C 28.9244,23.6166 29.2577,22.7833 32.5,22.5C 38.8053,22.826 43.1386,25.826 45.5,31.5C 44.1667,31.5 42.8333,31.5 41.5,31.5C 41.8256,35.8839 41.4922,40.2172 40.5,44.5C 35.3287,46.0015 30.3287,47.6682 25.5,49.5 Z"/></g>
<g><path style="opacity:0.992" fill="#7d7d7d" d="M 9.5,26.5 C 13.9658,26.8764 18.2992,27.8764 22.5,29.5C 21.7303,31.2718 20.3969,32.2718 18.5,32.5C 14.6345,31.787 10.9678,30.6203 7.5,29C 8.38053,28.2917 9.0472,27.4584 9.5,26.5 Z"/></g>
<g><path style="opacity:0.993" fill="#7d7d7d" d="M 34.5,26.5 C 37.3456,26.0301 39.6789,26.8634 41.5,29C 37.7473,30.397 33.914,31.5637 30,32.5C 28.3783,32.0459 27.2116,31.0459 26.5,29.5C 29.1836,28.247 31.8503,27.247 34.5,26.5 Z"/></g>
<g><path style="opacity:1" fill="#7e7e7e" d="M 9.5,32.5 C 12.6699,33.0836 15.8365,33.7503 19,34.5C 20.7106,34.5607 22.044,33.8941 23,32.5C 23.4992,37.1548 23.6658,41.8215 23.5,46.5C 19.1421,45.4935 14.8088,44.3269 10.5,43C 9.54416,39.6064 9.21083,36.1064 9.5,32.5 Z"/></g>
<g><path style="opacity:0.999" fill="#7e7e7e" d="M 25.5,32.5 C 26.5307,33.355 27.6974,34.0217 29,34.5C 32.4019,33.2741 35.9019,32.6074 39.5,32.5C 39.8204,35.8984 39.487,39.2317 38.5,42.5C 34.5,43.8333 30.5,45.1667 26.5,46.5C 25.5067,41.8804 25.1734,37.2137 25.5,32.5 Z"/></g>
</svg>
